<svg xmlns="http://www.w3.org/2000/svg" viewBox="0 0 16 16">
  <defs>
    <style>.canvas{fill: none; opacity: 0;}.light-defaultgrey{fill: #212121; opacity: 1;}</style>
  </defs>
  <title>IconLightASerif</title>
  <g id="canvas" class="canvas">
    <path class="canvas" d="M16,16H0V0H16Z" />
  </g>
  <g id="level-1">
    <path class="light-defaultgrey" d="M13.3,13H8.984v-.52a4.544,4.544,0,0,0,.948-.146q.376-.111.377-.271A1.207,1.207,0,0,0,10.3,11.9a.849.849,0,0,0-.044-.169L9.39,9.4H5.742q-.205.513-.334.893t-.23.7a5.087,5.087,0,0,0-.133.514,1.773,1.773,0,0,0-.036.322c0,.2.153.347.461.453a3.68,3.68,0,0,0,1.041.191V13H2.6v-.52a3.026,3.026,0,0,0,.476-.084,1.538,1.538,0,0,0,.469-.187A1.85,1.85,0,0,0,4,11.8a2.747,2.747,0,0,0,.315-.6Q5.093,9.244,6.039,6.8T7.722,2.461h.586l3.465,8.965a1.765,1.765,0,0,0,.249.461,1.693,1.693,0,0,0,.388.343,1.6,1.6,0,0,0,.439.173,2.219,2.219,0,0,0,.455.077ZM9.123,8.752,7.549,4.719,6,8.752Z" />
  </g>
</svg>
