<svg xmlns="http://www.w3.org/2000/svg" viewBox="0 0 16 16">
  <defs>
    <style>.canvas{fill: none; opacity: 0;}.light-defaultgrey-10{fill: #212121; opacity: 0.1;}.light-defaultgrey{fill: #212121; opacity: 1;}.cls-1{opacity:0.75;}</style>
  </defs>
  <title>IconLightBinary</title>
  <g id="canvas">
    <path class="canvas" d="M16,16H0V0H16Z" />
  </g>
  <g id="level-1">
    <g class="cls-1">
      <path class="light-defaultgrey-10" d="M15.5,11.5H.5v-8h15Z" />
      <path class="light-defaultgrey" d="M15.5,12H.5L0,11.5v-8L.5,3h15l.5.5v8ZM1,11H15V4H1Z" />
    </g>
    <path class="light-defaultgrey" d="M3.346,10.037a1.346,1.346,0,0,1-1.174-.614,3.129,3.129,0,0,1-.421-1.775,3.466,3.466,0,0,1,.44-1.929,1.432,1.432,0,0,1,1.268-.655q1.587,0,1.587,2.467A3.254,3.254,0,0,1,4.6,9.4,1.442,1.442,0,0,1,3.346,10.037Zm.076-4.353q-.876,0-.876,1.93,0,1.8.859,1.806t.846-1.836Q4.251,5.685,3.422,5.684Z" />
    <path class="light-defaultgrey" d="M7.369,5.037V9.956H6.59V5.99a2.462,2.462,0,0,1-.454.257,3.8,3.8,0,0,1-.556.186V5.769c.13-.043.256-.088.376-.135s.24-.1.358-.157.236-.124.356-.2.242-.153.371-.245Z" />
    <path class="light-defaultgrey" d="M9.927,10.037a1.346,1.346,0,0,1-1.174-.614,3.129,3.129,0,0,1-.421-1.775,3.466,3.466,0,0,1,.44-1.929,1.432,1.432,0,0,1,1.268-.655q1.587,0,1.587,2.467A3.254,3.254,0,0,1,11.18,9.4,1.442,1.442,0,0,1,9.927,10.037ZM10,5.684q-.876,0-.876,1.93,0,1.8.859,1.806t.846-1.836Q10.832,5.685,10,5.684Z" />
    <path class="light-defaultgrey" d="M13.949,5.037V9.956H13.17V5.99a2.462,2.462,0,0,1-.454.257,3.83,3.83,0,0,1-.555.186V5.769c.129-.043.255-.088.375-.135s.24-.1.358-.157.236-.124.356-.2.242-.153.371-.245Z" />
  </g>
</svg>
