<svg xmlns="http://www.w3.org/2000/svg" viewBox="0 0 16 16">
  <defs>
    <style>.canvas{fill: none; opacity: 0;}.light-defaultgrey-10{fill: #212121; opacity: 0.1;}.light-defaultgrey{fill: #212121; opacity: 1;}.white{fill: #ffffff; opacity: 1;}</style>
  </defs>
  <title>IconLightBooleanData</title>
  <g id="canvas">
    <path class="canvas" d="M16,16H0V0H16Z" />
  </g>
  <g id="level-1">
    <path class="light-defaultgrey-10" d="M8,4.5h7.5v8H8Z" />
    <path class="light-defaultgrey" d="M12.293,8,11.146,6.854l.708-.708,2,2v.708l-2,2-.708-.708L12.293,9H8V8Z" />
    <path class="light-defaultgrey" d="M15.5,4H.5L0,4.5v8l.5.5h15l.5-.5v-8ZM15,12H8V5h7Z" />
    <path class="white" d="M3.707,9l1.147,1.146-.708.708-2-2V8.146l2-2,.708.708L3.707,8H8V9Z" />
  </g>
</svg>
