<svg xmlns="http://www.w3.org/2000/svg" viewBox="0 0 16 16">
  <defs>
    <style>.canvas{fill: none; opacity: 0;}.light-defaultgrey-10{fill: #212121; opacity: 0.1;}.light-defaultgrey{fill: #212121; opacity: 1;}.light-yellow-10{fill: #996f00; opacity: 0.1;}.light-yellow{fill: #996f00; opacity: 1;}.light-blue{fill: #005dba; opacity: 1;}.light-darkblue{fill: #313c9e; opacity: 1;}</style>
  </defs>
  <title>IconLightCleanData</title>
  <g id="canvas" class="canvas">
    <path class="canvas" d="M16,16H0V0H16Z" />
  </g>
  <g id="level-1">
    <path class="light-defaultgrey-10" d="M9.2,7.492l-.708-.707L14.147,1.13a.516.516,0,0,1,.707,0,.5.5,0,0,1,0,.707Z" />
    <path class="light-defaultgrey" d="M15.561,2.561,9.768,8.354l-.707-.708,5.793-5.792a.5.5,0,1,0-.708-.707L8.354,6.939l-.708-.707L13.439.439a1.5,1.5,0,0,1,2.122,2.122Z" />
    <path class="light-yellow-10" d="M9.5,10.5l-3,5-6-6,5-3a2,2,0,0,1,2.828,0L9.5,7.672A2,2,0,0,1,9.5,10.5Z" />
    <path class="light-yellow" d="M9.854,7.318,8.682,6.146A2.556,2.556,0,0,0,5.229,6.08L.243,9.071l-.1.783,6,6,.783-.1,2.99-4.984A2.5,2.5,0,0,0,9.854,7.318ZM6.4,14.694l-.635-.636L7,12,4.942,13.235,1.307,9.6,4.173,7.88,8.12,11.827Zm2.251-3.75-3.595-3.6.367-.22L8.87,10.578Zm.777-1.223L6.282,6.575a1.528,1.528,0,0,1,1.693.279L9.146,8.025A1.491,1.491,0,0,1,9.428,9.721Z" />
    <path class="light-blue" d="M4,4a.5.5,0,0,1-.4.49l-.788.157a.212.212,0,0,0-.163.165L2.49,5.6a.5.5,0,0,1-.98,0L1.353,4.81a.212.212,0,0,0-.165-.163L.4,4.49a.5.5,0,0,1,0-.98l.788-.157a.212.212,0,0,0,.163-.165L1.51,2.4a.5.5,0,0,1,.98,0l.157.788a.212.212,0,0,0,.165.163L3.6,3.51A.5.5,0,0,1,4,4Z" />
    <path class="light-darkblue" d="M8.5,2a.5.5,0,0,1-.4.49l-.788.157a.212.212,0,0,0-.163.165L6.99,3.6a.5.5,0,0,1-.98,0L5.853,2.81a.212.212,0,0,0-.165-.163L4.9,2.49a.5.5,0,0,1,0-.98l.788-.157a.212.212,0,0,0,.163-.165L6.01.4a.5.5,0,0,1,.98,0l.157.788a.212.212,0,0,0,.165.163L8.1,1.51A.5.5,0,0,1,8.5,2Z" />
  </g>
</svg>
