<svg xmlns="http://www.w3.org/2000/svg" viewBox="0 0 16 16">
  <defs>
    <style>.canvas{fill: none; opacity: 0;}.light-defaultgrey{fill: #212121; opacity: 1;}.white{fill: #ffffff; opacity: 1;}.light-defaultgrey-10{fill: #212121; opacity: 0.1;}.light-defaultgrey-25{fill: #212121; opacity: 0.25;}.cls-1{opacity:0.75;}</style>
  </defs>
  <title>CloseDocumentGroup</title>
  <g id="canvas">
    <path class="canvas" d="M16,16H0V0H16Z" />
  </g>
  <g id="level-1">
    <path class="light-defaultgrey" d="M7,.5v6L6.5,7H.5L0,6.5V.5L.5,0h6Z" />
    <path class="white" d="M5.146,5.854,3.5,4.207,2,5.707,1.293,5l1.5-1.5L1.293,2,2,1.293l1.5,1.5L5,1.293,5.707,2l-1.5,1.5L5.854,5.146Z" />
    <g class="cls-1">
      <path class="light-defaultgrey-10" d="M8.5,2.5V6h4l.5.5v5h2.5v-9Z" />
      <path class="light-defaultgrey-10" d="M2.5,8v5.5H5V8Z" />
      <path class="light-defaultgrey" d="M15.5,2h-7L8,2.5V6H9V3h6v8H13v1h2.5l.5-.5v-9ZM3,8H2v5.5l.5.5H5V13H3Z" />
    </g>
    <path class="light-defaultgrey-10" d="M8,6.5v.41L6.91,8H5.5v7.5h7v-9Z" />
    <path class="light-defaultgrey" d="M12.5,6H8v.91L7.91,7H12v8H6V8H5v7.5l.5.5h7l.5-.5v-9Z" />
    <path class="light-defaultgrey-25" d="M9,11V7H8v4.5l.5.5H12V11Z" />
  </g>
</svg>
