<svg xmlns="http://www.w3.org/2000/svg" viewBox="0 0 16 16">
  <defs>
    <style>.canvas{fill: none; opacity: 0;}.light-defaultgrey-10{fill: #212121; opacity: 0.1;}.light-defaultgrey{fill: #212121; opacity: 1;}</style>
  </defs>
  <title>IconLightCounter</title>
  <g id="canvas" class="canvas">
    <path class="canvas" d="M0,0H16V16H0Z" />
  </g>
  <g id="level-1">
    <path class="light-defaultgrey-10" d="M14.5,13.5H.5V2.5h14Z" />
    <path class="light-defaultgrey" d="M14.5,14H.5L0,13.5V2.5L.5,2h14l.5.5v11ZM1,13H14V3H1Z" />
    <path class="light-defaultgrey" d="M12.5,6H8V4.5L7.5,4h-5L2,4.5v7l.5.5h10l.5-.5v-5ZM3,11V5H7v6Zm9,0H8V7h4Z" />
    <path class="light-defaultgrey" d="M5.1,7.148a3.152,3.152,0,0,1-.532.243A1.688,1.688,0,0,1,4,7.5v-1a.924.924,0,0,0,.242-.047,2.486,2.486,0,0,0,.313-.117,1.5,1.5,0,0,0,.281-.164A.673.673,0,0,0,5.008,6H6v4H5.1Z" />
    <path class="light-defaultgrey" d="M10.1,9.148a3.152,3.152,0,0,1-.532.243A1.688,1.688,0,0,1,9,9.5v-1a.924.924,0,0,0,.242-.047,2.486,2.486,0,0,0,.313-.117,1.5,1.5,0,0,0,.281-.164A.673.673,0,0,0,10.008,8H11v3h-.9Z" />
  </g>
</svg>
