<svg xmlns="http://www.w3.org/2000/svg" viewBox="0 0 16 16">
  <defs>
    <style>.canvas{fill: none; opacity: 0;}.light-teal-10{fill: #006758; opacity: 0.1;}.light-teal{fill: #006758; opacity: 1;}.light-red{fill: #c50b17; opacity: 1;}.cls-1{fill:none;}</style>
  </defs>
  <title>IconLightDisconnect</title>
  <g id="canvas">
    <path class="canvas" d="M16,16H0V0H16Z" />
  </g>
  <g id="level-1">
    <path class="cls-1" d="M16,16H0V0H16Z" />
    <path class="light-teal-10" d="M14.5,3.5V7a3.5,3.5,0,0,1-7,0V3.5Z" />
    <path class="light-teal" d="M14.5,3H13V0H12V3H10V0H9V3H7.5L7,3.5V7a3.991,3.991,0,0,0,3.5,3.949V16h1V10.949A3.991,3.991,0,0,0,15,7V3.5ZM14,7A3,3,0,0,1,8,7V4h6Z" />
    <path class="light-red" d="M3.707,3,5.854,5.146l-.708.708L3,3.707.854,5.854.146,5.146,2.293,3,.146.854.854.146,3,2.293,5.146.146l.708.708Z" />
  </g>
</svg>
