<svg xmlns="http://www.w3.org/2000/svg" viewBox="0 0 16 16">
  <defs>
    <style>.canvas{fill: none; opacity: 0;}.light-defaultgrey-10{fill: #212121; opacity: 0.1;}.light-defaultgrey{fill: #212121; opacity: 1;}.cls-1{opacity:0.75;}</style>
  </defs>
  <title>IconLightDomainType</title>
  <g id="canvas" class="canvas">
    <path class="canvas" d="M16,0V16H0V0Z" />
  </g>
  <g id="level-1">
    <g class="cls-1">
      <path class="light-defaultgrey-10" d="M14.5,12.5H1.5V2.5h13Z" />
      <path class="light-defaultgrey" d="M14.5,13H1.5L1,12.5V2.5L1.5,2h13l.5.5v10ZM2,12H14V3H2Z" />
    </g>
    <path class="light-defaultgrey" d="M9,10H6V9.414a1.517,1.517,0,0,1,.109-.57,1.533,1.533,0,0,1,.258-.422,5.46,5.46,0,0,1,.391-.414q.219-.211.429-.391a4.511,4.511,0,0,0,.4-.383,2.993,2.993,0,0,0,.3-.367A.694.694,0,0,0,8,6.5a.5.5,0,0,0-.813-.391.543.543,0,0,0-.179.289l-.977-.2a1.372,1.372,0,0,1,.18-.476,1.292,1.292,0,0,1,.344-.375A1.962,1.962,0,0,1,7,5.094,1.323,1.323,0,0,1,7.5,5a1.474,1.474,0,0,1,.586.117,1.5,1.5,0,0,1,.8.8A1.474,1.474,0,0,1,9,6.5a1.639,1.639,0,0,1-.086.547,1.738,1.738,0,0,1-.242.453,3.506,3.506,0,0,1-.344.4q-.187.188-.4.36a5.09,5.09,0,0,0-.4.359Q7.344,8.8,7.164,9H9ZM4.1,6.148a3.152,3.152,0,0,1-.532.243A1.688,1.688,0,0,1,3,6.5v-1a.924.924,0,0,0,.242-.047,2.486,2.486,0,0,0,.313-.117,1.5,1.5,0,0,0,.281-.164A.673.673,0,0,0,4.008,5H5v5H4.1ZM11.312,10a1.855,1.855,0,0,1-.632-.109,2.953,2.953,0,0,1-.586-.289V8.609c.1.079.2.146.273.2a1.183,1.183,0,0,0,.25.14,1.217,1.217,0,0,0,.266.078,2.053,2.053,0,0,0,.351.024,1.651,1.651,0,0,0,.328-.032.658.658,0,0,0,.274-.117.719.719,0,0,0,.2-.218.594.594,0,0,0,.071-.329.358.358,0,0,0-.188-.343,1.345,1.345,0,0,0-.437-.141,2.325,2.325,0,0,0-.508-.023q-.258.015-.414.015V7.109h.453a1.826,1.826,0,0,0,.453-.054.72.72,0,0,0,.351-.2.627.627,0,0,0,.141-.446.457.457,0,0,0-.2-.437,1.014,1.014,0,0,0-.5-.11A1,1,0,0,0,10.719,6a3.67,3.67,0,0,0-.453.336V5.32a1.693,1.693,0,0,1,.593-.25A3.052,3.052,0,0,1,11.5,5a1.934,1.934,0,0,1,.547.078,1.515,1.515,0,0,1,.469.227,1.2,1.2,0,0,1,.336.383,1.024,1.024,0,0,1,.125.539,1.434,1.434,0,0,1-.149.664,1.157,1.157,0,0,1-.484.476,1.141,1.141,0,0,1,.562.414,1.093,1.093,0,0,1,.219.664,1.363,1.363,0,0,1-.156.657,1.529,1.529,0,0,1-.407.484,1.889,1.889,0,0,1-.585.3A2.138,2.138,0,0,1,11.312,10Z" />
  </g>
</svg>
