<svg xmlns="http://www.w3.org/2000/svg" viewBox="0 0 16 16">
  <defs>
    <style>.canvas{fill: none; opacity: 0;}.light-lightblue-10{fill: #0077a0; opacity: 0.1;}.light-lightblue{fill: #0077a0; opacity: 1;}.light-blue{fill: #005dba; opacity: 1;}</style>
  </defs>
  <title>ExportData</title>
  <g id="canvas">
    <path class="canvas" d="M16,16H0V0H16ZM16,0H0V16H16Z" />
  </g>
  <g id="level-1">
    <path class="light-lightblue-10" d="M7,13.481C5.03,13.388,3.5,12.764,3.5,12V3.97c0-.828,1.791-1.5,4-1.5s4,.672,4,1.5V9.086l-1.268,1.268.646.646H7Z" />
    <path class="light-lightblue" d="M7,12.981c-1.945-.1-3-.713-3-.981V5.261a7.863,7.863,0,0,0,3.5.709A7.863,7.863,0,0,0,11,5.261V9.586l1-1V3.97c0-2.627-9-2.627-9,0V12c0,1.215,1.939,1.886,4,1.981ZM7.5,2.97c2.273,0,3.5.71,3.5,1s-1.227,1-3.5,1S4,4.26,4,3.97,5.227,2.97,7.5,2.97Z" />
    <path class="light-blue" d="M12.354,9.646l2.5,2.5v.708l-2.5,2.5-.708-.708L13.293,13H8V12h5.293l-1.647-1.646ZM15,10v5h1V10Z" />
  </g>
</svg>
