<svg xmlns="http://www.w3.org/2000/svg" viewBox="0 0 16 16">
  <defs>
    <style>.canvas{fill: none; opacity: 0;}.light-defaultgrey-10{fill: #212121; opacity: 0.1;}.light-lightblue{fill: #0077a0; opacity: 1;}.light-defaultgrey{fill: #212121; opacity: 1;}.cls-1{opacity:0.75;}</style>
  </defs>
  <title>IconLightFill</title>
  <g id="Canvas">
    <path class="canvas" d="M16,16H0V0H16Z" />
  </g>
  <g id="level-1">
    <path class="light-defaultgrey-10" d="M10.039,11.884l-2.08,2.08C6.927,15,4.766,14.507,3.132,12.873S1.009,9.078,2.041,8.046L6.047,4.04A5.174,5.174,0,0,0,7.778,8.227,6.189,6.189,0,0,0,10.5,9.868c-.075.179-.154.355-.24.525A2.461,2.461,0,0,0,10,11.5,2.5,2.5,0,0,0,10.039,11.884Z" />
    <path class="light-defaultgrey-10" d="M7.657,7.324C6.418,5.78,6.119,3.958,7.041,3.036,8.073,2,10.234,2.493,11.868,4.127A5.418,5.418,0,0,1,13.444,7H7.808Z" />
    <g class="cls-1">
      <path class="light-lightblue" d="M14.5,11.5a2,2,0,0,1-4,0,1.964,1.964,0,0,1,.206-.879,9,9,0,0,0,.478-1.152,5.3,5.3,0,0,1-3.052-1.6c-.119-.119-.218-.245-.324-.369H13.5v.234a6.512,6.512,0,0,0,.794,2.887A1.964,1.964,0,0,1,14.5,11.5Z" />
    </g>
    <path class="light-lightblue" d="M12.5,13.991A2.5,2.5,0,0,1,10,11.5a2.461,2.461,0,0,1,.258-1.1c.089-.177.172-.36.249-.547A6.145,6.145,0,0,1,7.778,8.217c-.1-.1-.183-.2-.269-.3l-.08-.095L7.808,7h5.684L14,7.5v.234a5.946,5.946,0,0,0,.741,2.664h0A2.461,2.461,0,0,1,15,11.5,2.5,2.5,0,0,1,12.5,13.991ZM9.033,8a4.45,4.45,0,0,0,2.2.972l.421.657a9.714,9.714,0,0,1-.5,1.216A1.454,1.454,0,0,0,11,11.5a1.5,1.5,0,0,0,3,0,1.454,1.454,0,0,0-.154-.655A7.171,7.171,0,0,1,13.007,8Z" />
    <path class="light-defaultgrey" d="M12.76,4.27a8.912,8.912,0,0,0-.813-.813A5.021,5.021,0,0,0,8.958,2.032L8.928,2C7.082.772,5.013.653,3.828,1.839a3.621,3.621,0,0,0-.375,4.088L1.687,7.692C.441,8.938.92,11.369,2.778,13.227A5.55,5.55,0,0,0,6.5,15.01a2.493,2.493,0,0,0,1.81-.692l1.877-1.877A2.483,2.483,0,0,1,10,11.5a2.552,2.552,0,0,1,.036-.315L7.605,13.611c-.822.821-2.708.32-4.12-1.091S1.573,9.22,2.4,8.4L3.948,6.845a7.469,7.469,0,0,0,.989,1.248A7.619,7.619,0,0,0,6.03,9l.727-.728A6.294,6.294,0,0,1,4.67,6.124L6.022,4.771l.012-.008a5.471,5.471,0,0,0,1.4,3.066V7.822L7.808,7h.213C6.974,5.671,6.671,4.122,7.4,3.4A1.5,1.5,0,0,1,8.49,3,4.649,4.649,0,0,1,11.515,4.49,5.055,5.055,0,0,1,12.937,7h.555l.494.487A6.029,6.029,0,0,0,12.76,4.27Zm-8.526.876a2.509,2.509,0,0,1,.3-2.6A1.959,1.959,0,0,1,5.96,2.025a3.854,3.854,0,0,1,1.3.252l.018.018a2.119,2.119,0,0,0-.6.4Z" />
  </g>
</svg>
