<svg xmlns="http://www.w3.org/2000/svg" viewBox="0 0 16 16">
  <defs>
    <style>.canvas{fill: none; opacity: 0;}.light-defaultgrey-10{fill: #212121; opacity: 0.1;}.light-defaultgrey{fill: #212121; opacity: 1;}</style>
  </defs>
  <title>IconLightGrid</title>
  <g id="canvas">
    <path class="canvas" d="M16,16H0V0H16Z" />
  </g>
  <g id="level-1">
    <path class="light-defaultgrey-10" d="M4.5,4.5h-3v-3h3Zm5-3h-3v3h3Zm5,0h-3v3h3Zm-10,5h-3v3h3Zm5,0h-3v3h3Zm5,0h-3v3h3Zm-10,5h-3v3h3Zm5,0h-3v3h3Zm5,0h-3v3h3Z" />
    <path class="light-defaultgrey" d="M4.5,5h-3L1,4.5v-3L1.5,1h3l.5.5v3ZM2,4H4V2H2ZM9.5,5h-3L6,4.5v-3L6.5,1h3l.5.5v3ZM7,4H9V2H7Zm7.5,1h-3L11,4.5v-3l.5-.5h3l.5.5v3ZM12,4h2V2H12ZM4.5,10h-3L1,9.5v-3L1.5,6h3l.5.5v3ZM2,9H4V7H2Zm7.5,1h-3L6,9.5v-3L6.5,6h3l.5.5v3ZM7,9H9V7H7Zm7.5,1h-3L11,9.5v-3l.5-.5h3l.5.5v3ZM12,9h2V7H12ZM4.5,15h-3L1,14.5v-3l.5-.5h3l.5.5v3ZM2,14H4V12H2Zm7.5,1h-3L6,14.5v-3l.5-.5h3l.5.5v3ZM7,14H9V12H7Zm7.5,1h-3l-.5-.5v-3l.5-.5h3l.5.5v3ZM12,14h2V12H12Z" />
  </g>
</svg>
