<svg xmlns="http://www.w3.org/2000/svg" viewBox="0 0 16 16">
  <defs>
    <style>.canvas{fill: none; opacity: 0;}.light-defaultgrey{fill: #212121; opacity: 1;}</style>
  </defs>
  <title>IconLightInfinity</title>
  <g id="canvas">
    <path class="canvas" d="M16,0V16H0V0Z" />
  </g>
  <g id="level-1">
    <path class="light-defaultgrey" d="M15,7.5A3.5,3.5,0,0,1,8.87,9.81L8.5,9.39l.66-.75.46.51a2.5,2.5,0,1,0,.79-3.9,2.586,2.586,0,0,0-.79.6L6.13,9.81a3.5,3.5,0,1,1,0-4.62l.37.42-.66.75-.46-.51A2.5,2.5,0,1,0,3.5,10a2.377,2.377,0,0,0,.99-.21,2.441,2.441,0,0,0,.89-.64L8.87,5.19a3.756,3.756,0,0,1,.88-.72A3.452,3.452,0,0,1,11.5,4,3.5,3.5,0,0,1,15,7.5Z" />
  </g>
</svg>
