<svg xmlns="http://www.w3.org/2000/svg" viewBox="0 0 16 16">
  <defs>
    <style>.canvas{fill: none; opacity: 0;}.light-defaultgrey-10{fill: #212121; opacity: 0.1;}.light-defaultgrey{fill: #212121; opacity: 1;}.light-red-10{fill: #c50b17; opacity: 0.1;}.light-red{fill: #c50b17; opacity: 1;}</style>
  </defs>
  <title>IconLightInfraredDevice</title>
  <g id="canvas" class="canvas">
    <path class="canvas" d="M16,0V16H0V0Z" />
  </g>
  <g id="level-1">
    <path class="light-defaultgrey-10" d="M1,8a3,3,0,0,0,2,2.82,2.166,2.166,0,0,0,.5.13V14.5H.5V1.5h3V5.05a2.166,2.166,0,0,0-.5.13A3,3,0,0,0,1,8Z" />
    <path class="light-defaultgrey" d="M3.5,5.05A2.071,2.071,0,0,1,4,5V1.5L3.5,1H.5L0,1.5v13l.5.5h3l.5-.5V11a2.071,2.071,0,0,1-.5-.05,2.166,2.166,0,0,1-.5-.13V14H1V2H3V5.18A2.166,2.166,0,0,1,3.5,5.05Z" />
    <path class="light-red-10" d="M5.5,8A1.5,1.5,0,1,1,4,6.5,1.5,1.5,0,0,1,5.5,8Z" />
    <path class="light-red" d="M4,10A2,2,0,1,1,6,8,2,2,0,0,1,4,10ZM4,7A1,1,0,1,0,5,8,1,1,0,0,0,4,7Z" />
    <path class="light-defaultgrey" d="M7.536,11.536l-.707-.707a4.007,4.007,0,0,0,0-5.658l.707-.707A5.008,5.008,0,0,1,7.536,11.536ZM9.657,2.343,8.95,3.05a7,7,0,0,1,0,9.9l.707.707a8,8,0,0,0,0-11.314ZM11.778.222l-.707.707a10.011,10.011,0,0,1,0,14.142l.707.707A11.012,11.012,0,0,0,11.778.222Z" />
  </g>
</svg>
