<svg xmlns="http://www.w3.org/2000/svg" viewBox="0 0 16 16">
  <defs>
    <style>.canvas{fill: none; opacity: 0;}.light-defaultgrey-10{fill: #212121; opacity: 0.1;}.light-defaultgrey{fill: #212121; opacity: 1;}</style>
  </defs>
  <title>IconLightItemListView</title>
  <g id="canvas">
    <path class="canvas" d="M16,0V16H0V0Z" />
  </g>
  <g id="level-1">
    <path class="light-defaultgrey-10" d="M1.5,9.5h2v2h-2Zm0-6h2v-2h-2Zm10-2v2h2v-2Zm-5,2h2v-2h-2Zm0,8h2v-2h-2Z" />
    <path class="light-defaultgrey" d="M1.5,1,1,1.5v2l.5.5h2L4,3.5v-2L3.5,1ZM3,3H2V2H3ZM6.5,1,6,1.5v2l.5.5h2L9,3.5v-2L8.5,1ZM8,3H7V2H8ZM1.5,9,1,9.5v2l.5.5h2l.5-.5v-2L3.5,9ZM3,11H2V10H3ZM6.5,9,6,9.5v2l.5.5h2l.5-.5v-2L8.5,9ZM8,11H7V10H8ZM13.5,1h-2l-.5.5v2l.5.5h2l.5-.5v-2ZM13,3H12V2h1ZM1,14H4v1H1ZM11,6h3V7H11ZM6,6H9V7H6ZM1,6H4V7H1Zm5,8H9v1H6Z" />
  </g>
</svg>
