<svg xmlns="http://www.w3.org/2000/svg" viewBox="0 0 16 16">
  <defs>
    <style>.canvas{fill: none; opacity: 0;}.light-defaultgrey{fill: #212121; opacity: 1;}.light-defaultgrey-10{fill: #212121; opacity: 0.1;}</style>
  </defs>
  <title>IconLightLockYAxis</title>
  <g id="canvas">
    <path class="canvas" d="M16,16H0V0H16Z" />
  </g>
  <g id="level-1">
    <path class="light-defaultgrey" d="M8.39,7.971V12H6.818V7.971L4,3.125H5.907l1.691,3,1.7-3h1.907Z" />
    <path class="light-defaultgrey-10" d="M15.5,11.5v4h-5v-4Z" />
    <path class="light-defaultgrey" d="M15.5,11H15V10a2,2,0,0,0-4,0v1h-.5l-.5.5v4l.5.5h5l.5-.5v-4ZM12,10a1,1,0,0,1,2,0v1H12Zm3,5H11V12h4Z" />
  </g>
</svg>
