<svg xmlns="http://www.w3.org/2000/svg" viewBox="0 0 16 16">
  <defs>
    <style>.canvas{fill: none; opacity: 0;}.light-defaultgrey-10{fill: #212121; opacity: 0.1;}.light-defaultgrey{fill: #212121; opacity: 1;}.cls-1{opacity:0.75;}</style>
  </defs>
  <title>IconLightMemory</title>
  <g id="canvas">
    <path class="canvas" d="M16,0V16H0V0Z" />
  </g>
  <g id="level-1">
    <path class="light-defaultgrey-10" d="M13.5,4.5v6H1.5v-6Z" />
    <g class="cls-1">
      <path class="light-defaultgrey" d="M8,11H9v2H8ZM6,13H7V11H6ZM2,13H3V11H2Zm10,0h1V11H12ZM8,4H9V2H8ZM6,4H7V2H6ZM4,13H5V11H4ZM4,4H5V2H4Zm6,9h1V11H10Zm0-9h1V2H10ZM2,4H3V2H2ZM12,4h1V2H12Z" />
    </g>
    <path class="light-defaultgrey" d="M12,8H3V7h9Zm1.5-4H1.5L1,4.5v6l.5.5h12l.5-.5v-6ZM13,10H2V5H13Z" />
  </g>
</svg>
