<svg xmlns="http://www.w3.org/2000/svg" viewBox="0 0 16 16">
  <defs>
    <style>.canvas{fill: none; opacity: 0;}.light-yellow{fill: #996f00; opacity: 1;}.light-yellow-10{fill: #996f00; opacity: 0.1;}</style>
  </defs>
  <title>IconLightNew</title>
  <g id="canvas" class="canvas">
    <path class="canvas" d="M16,16H0V0H16Z" />
  </g>
  <g id="level-1">
    <path class="light-yellow" d="M8,13H7V11H8Zm5-5H11V7h2ZM4,8H2V7H4ZM8,4H7V2H8Z" />
    <path class="light-yellow" d="M10.646,11.354l-1.5-1.5.708-.708,1.5,1.5ZM5.854,5.146l-1.5-1.5-.708.708,1.5,1.5Zm-.03,4.7-.715-.7-1.466,1.5.714.7Zm5.513-5.513L10.63,3.63,9.122,5.138l.707.707Z" />
    <path class="light-yellow-10" d="M7.5,9.632l-.534-1.1a.7.7,0,0,0-.438-.467L5.373,7.5l1.1-.548a.7.7,0,0,0,.461-.435L7.5,5.382l.546,1.092a.705.705,0,0,0,.436.462L9.618,7.5l-1.1.545a.7.7,0,0,0-.46.435Z" />
    <path class="light-yellow" d="M7.494,10.633,6.709,9.017a1.029,1.029,0,0,0-.645-.688L4.373,7.5,5.991,6.7a1.031,1.031,0,0,0,.679-.641L7.5,4.38l.8,1.607a1.035,1.035,0,0,0,.641.68l1.674.834-1.61.8a1.026,1.026,0,0,0-.677.638ZM6.662,7.5a1.943,1.943,0,0,1,.842.837A1.949,1.949,0,0,1,8.347,7.5,1.951,1.951,0,0,1,7.5,6.655,1.961,1.961,0,0,1,6.662,7.5Z" />
  </g>
</svg>
