<svg xmlns="http://www.w3.org/2000/svg" viewBox="0 0 16 16">
  <defs>
    <style>.canvas{fill: none; opacity: 0;}.light-defaultgrey-10{fill: #212121; opacity: 0.1;}.light-defaultgrey{fill: #212121; opacity: 1;}.light-yellow{fill: #996f00; opacity: 1;}</style>
  </defs>
  <title>IconLightNewDeploymentPackage</title>
  <g id="canvas" class="canvas">
    <path class="canvas" d="M16,16H0V0H16Z" />
  </g>
  <g id="level-1">
    <path class="light-defaultgrey-10" d="M8.5,1.5H7.53a4.4,4.4,0,0,1,.21.5A4.379,4.379,0,0,1,8,3.5,4.5,4.5,0,0,1,7.24,6,4.309,4.309,0,0,1,6,7.24a4.07,4.07,0,0,1-1,.5A4.379,4.379,0,0,1,3.5,8,4.07,4.07,0,0,1,3,7.97a4.16,4.16,0,0,1-1-.23,4.4,4.4,0,0,1-.5-.21V13.5H8V8h3.5V4.5Z" />
    <path class="light-defaultgrey" d="M11.85,4.15l-3-3L8.5,1H7.24a3.6,3.6,0,0,1,.29.5,4.4,4.4,0,0,1,.21.5H8V5h3V8h1V4.5ZM2,13V7.74a4.4,4.4,0,0,1-.5-.21A3.6,3.6,0,0,1,1,7.24V13.5l.5.5H8V13Z" />
    <path class="light-defaultgrey" d="M7.24,6A4.309,4.309,0,0,1,6,7.24V8H8V6ZM3,9v2H5V9Zm.5-1H5V7.74A4.379,4.379,0,0,1,3.5,8ZM3,8h.5A4.07,4.07,0,0,1,3,7.97Z" />
    <path class="light-defaultgrey" d="M13,9v3h3V9ZM9,13v3h3V13ZM9,9v3h3V9Z" />
    <path class="light-yellow" d="M3,2,3,0H4L4,2l-.5.5Zm.5,2.5L3,5V7H4V5Zm1-1L5,4,7,4V3L5,3Zm-2,0L2,3,0,3V4L2,4Zm1.708-.7h.708L6.328,1.378,5.62.671,4.208,2.088ZM2.792,4.206H2.085L.673,5.623l.707.706L2.793,4.913Zm1.414,0v.708L5.623,6.328l.706-.708L4.913,4.208ZM2.794,2.792V2.085L1.378.673.671,1.38,2.088,2.793Z" />
  </g>
</svg>
