<svg xmlns="http://www.w3.org/2000/svg" viewBox="0 0 16 16">
  <defs>
    <style>.canvas{fill: none; opacity: 0;}.light-defaultgrey-10{fill: #212121; opacity: 0.1;}.light-defaultgrey{fill: #212121; opacity: 1;}.light-yellow{fill: #996f00; opacity: 1;}</style>
  </defs>
  <title>IconLightNewPartition</title>
  <g id="canvas" class="canvas">
    <path class="canvas" d="M16,16H0V0H16Z" />
  </g>
  <g id="level-1">
    <path class="light-defaultgrey-10" d="M8,2.6l-.08.05a3.429,3.429,0,0,1,.07.56A2.81,2.81,0,0,1,8,3.5,4.487,4.487,0,0,1,5.38,7.59a4.391,4.391,0,0,1-1.25.36A3.346,3.346,0,0,1,3.5,8,4.07,4.07,0,0,1,3,7.97a4.331,4.331,0,0,1-.5-.08v2.84l4,2.67L12,9.73V5.27Z" />
    <path class="light-defaultgrey" d="M15.78,7.18l-1.5-1h-.56L12.5,7V5.27l-.22-.42-4-2.67H7.81c.04.16.08.31.11.47a3.429,3.429,0,0,1,.07.56L8,3.2l3.1,2.07L6.5,8.33,5.38,7.59a4.391,4.391,0,0,1-1.25.36L6,9.2v3.27L3,10.46V7.97a4.331,4.331,0,0,1-.5-.08A4.127,4.127,0,0,1,2,7.74v2.99l.22.42,4,2.67h.56L8,13v1.73l.22.42,1.5,1h.56l5.5-3.67.22-.41V7.6ZM7,9.2l4.5-3V7.67L8.22,9.85,8,10.27V11.8l-1,.67Z" />
    <path class="light-yellow" d="M3,2,3,0H4L4,2l-.5.5Zm.5,2.5L3,5V7H4V5Zm1-1L5,4,7,4V3L5,3Zm-2,0L2,3,0,3V4L2,4Zm1.708-.7h.708L6.328,1.378,5.62.671,4.208,2.088ZM2.792,4.206H2.085L.673,5.623l.707.706L2.793,4.913Zm1.414,0v.708L5.623,6.328l.706-.708L4.913,4.208ZM2.794,2.792V2.085L1.378.673.671,1.38,2.088,2.793Z" />
  </g>
</svg>
