<svg xmlns="http://www.w3.org/2000/svg" viewBox="0 0 16 16">
  <defs>
    <style>.canvas{fill: none; opacity: 0;}.light-defaultgrey-10{fill: #212121; opacity: 0.1;}.light-defaultgrey{fill: #212121; opacity: 1;}.light-yellow{fill: #996f00; opacity: 1;}</style>
  </defs>
  <title>IconLightNewTreeQuery</title>
  <g id="canvas" class="canvas">
    <path class="canvas" d="M16,16H0V0H16Z" />
  </g>
  <g id="level-1">
    <path class="light-defaultgrey-10" d="M7.89,2.5a4.331,4.331,0,0,1,.08.5A4.07,4.07,0,0,1,8,3.5,4.379,4.379,0,0,1,7.74,5a4.07,4.07,0,0,1-.5,1A2.428,2.428,0,0,1,7,6.32a4.168,4.168,0,0,1-1,.92,4.473,4.473,0,0,1-2,.73A4.07,4.07,0,0,1,3.5,8v.5h2v3h2v3h7V2.5Z" />
    <path class="light-defaultgrey" d="M14.5,2H7.74a4.127,4.127,0,0,1,.15.5,4.331,4.331,0,0,1,.08.5H14V5H7.74a4.07,4.07,0,0,1-.5,1H14V8H7V6.32a4.168,4.168,0,0,1-1,.92V8H4V7.97a4.182,4.182,0,0,1-1,0V8.5l.5.5H5v2.5l.5.5H7v2.5l.5.5h7l.5-.5V2.5ZM8,14V12h2v2Zm3,0V12h3v2ZM9,9h5v2H9ZM6,9H8v2H6Z" />
    <path class="light-yellow" d="M1.38.67l-.71.71L2.09,2.79h.7V2.08ZM4.91,4.21h-.7v.71L5.62,6.33l.71-.71Zm-2.83,0L.67,5.62l.71.71L2.79,4.91v-.7ZM5.62.67,4.21,2.09v.7h.7L6.33,1.38ZM2,3H0V4H2l.5-.5ZM5,3l-.5.5L5,4H7V3ZM3.5,4.5,3,5V7H4V5ZM3,0V2l.5.5L4,2V0Z" />
  </g>
</svg>
