<svg xmlns="http://www.w3.org/2000/svg" viewBox="0 0 16 16">
  <defs>
    <style>.canvas{fill: none; opacity: 0;}.light-defaultgrey{fill: #212121; opacity: 1;}</style>
  </defs>
  <title>IconLightOrderedList</title>
  <g id="canvas">
    <path class="canvas" d="M16,16H0V0H16Z" />
  </g>
  <g id="level-1">
    <path class="light-defaultgrey" d="M15,3V4H5V3ZM5,7H15V8H5Zm0,4H15v1H5ZM2.055,2.727a1.356,1.356,0,0,1-.289.164.992.992,0,0,1-.336.086v-.54q.242-.086.461-.187a2.269,2.269,0,0,0,.421-.258H2.7V5h-.64ZM2.047,6.008a1.362,1.362,0,0,1,.367.047.8.8,0,0,1,.3.156.727.727,0,0,1,.2.266A.968.968,0,0,1,3,6.844a.9.9,0,0,1-.094.422,1.621,1.621,0,0,1-.226.328,1.459,1.459,0,0,1-.305.258,3.056,3.056,0,0,0-.3.21c-.083.068-.161.133-.234.2a.222.222,0,0,0-.094.2H3V9H1.039V8.68a.714.714,0,0,1,.078-.3,1.264,1.264,0,0,1,.32-.445q.2-.18.4-.344c.13-.109.247-.214.351-.313a.46.46,0,0,0,.149-.367.347.347,0,0,0-.117-.3.521.521,0,0,0-.313-.086.883.883,0,0,0-.383.086,1.805,1.805,0,0,0-.343.219v-.57A1.57,1.57,0,0,1,2.047,6.008Zm.281,5.461a.887.887,0,0,1,.477.211A.6.6,0,0,1,3,12.156a.844.844,0,0,1-.094.414.716.716,0,0,1-.258.274A1.394,1.394,0,0,1,2.289,13a1.578,1.578,0,0,1-.422.055,2.26,2.26,0,0,1-.375-.032,1.318,1.318,0,0,1-.367-.117v-.57a1.091,1.091,0,0,0,.32.164,1.22,1.22,0,0,0,.367.055.737.737,0,0,0,.36-.086.348.348,0,0,0,.164-.321.3.3,0,0,0-.1-.25.691.691,0,0,0-.242-.117,1.137,1.137,0,0,0-.3-.039H1.422v-.5h.25a1.486,1.486,0,0,0,.265-.023.431.431,0,0,0,.219-.11.31.31,0,0,0,.094-.242.306.306,0,0,0-.125-.281.581.581,0,0,0-.313-.078,1.006,1.006,0,0,0-.578.187v-.531a1.29,1.29,0,0,1,.352-.117,2.8,2.8,0,0,1,.375-.039,1.551,1.551,0,0,1,.344.039.941.941,0,0,1,.3.125.672.672,0,0,1,.305.57.694.694,0,0,1-.148.469.851.851,0,0,1-.438.25Z" />
  </g>
</svg>
