<svg xmlns="http://www.w3.org/2000/svg" viewBox="0 0 16 16">
  <defs>
    <style>.canvas{fill: none; opacity: 0;}.light-defaultgrey-10{fill: #212121; opacity: 0.1;}.light-defaultgrey{fill: #212121; opacity: 1;}.light-yellow-10{fill: #996f00; opacity: 0.1;}.light-yellow{fill: #996f00; opacity: 1;}.cls-1{opacity:0.75;}</style>
  </defs>
  <title>IconLightQueryView</title>
  <g id="canvas" class="canvas">
    <path class="canvas" d="M16,16H0V0H16Z" />
  </g>
  <g id="level-1">
    <g class="cls-1">
      <path class="light-defaultgrey-10" d="M13,4.5v7H3.5V4h9Z" />
      <path class="light-defaultgrey" d="M13,11v1H3.5L3,11.5V4H4v7Z" />
      <path class="light-defaultgrey-10" d="M14.5,1.5v10H13v-7L12.5,4h-9V1.5Z" />
      <path class="light-defaultgrey" d="M15,1.5v10l-.5.5H13V11h1V3H4V4H3V1.5L3.5,1h11Z" />
      <path class="light-defaultgrey-10" d="M3.5,11.5h9v3H1.5V4.5h2Z" />
      <path class="light-defaultgrey" d="M12.5,4H1.5L1,4.5v10l.5.5h11l.5-.5V4.5ZM12,14H2V6H12Z" />
    </g>
    <path class="light-yellow-10" d="M12.5,5.5v6h-9v-6Z" />
    <path class="light-yellow" d="M12.5,5h-9L3,5.5v6l.5.5h9l.5-.5v-6ZM12,11H4V6h8Z" />
    <path class="light-yellow" d="M11,8V9H5V8Z" />
  </g>
</svg>
