<svg xmlns="http://www.w3.org/2000/svg" viewBox="0 0 16 16">
  <defs>
    <style>.canvas{fill: none; opacity: 0;}.light-defaultgrey{fill: #212121; opacity: 1;}.light-defaultgrey-10{fill: #212121; opacity: 0.1;}.cls-1{opacity:0.75;}</style>
  </defs>
  <title>IconLightRename</title>
  <g id="canvas">
    <path class="canvas" d="M16,16H0V0H16Z" />
  </g>
  <g id="level-1">
    <path class="light-defaultgrey" d="M12,3.765v8.467L13.152,13H14v1H13l-.277-.084L11.5,13.1l-1.194.811L10.027,14H9V13h.874L11,12.235V3.768L9.848,3H9V2h1l.277.084L11.5,2.9l1.194-.811L12.973,2H14V3h-.874Z" />
    <g class="cls-1">
      <path class="light-defaultgrey-10" d="M10,10.5H1.5v-5H9.971Z" />
      <path class="light-defaultgrey" d="M10,10v1H1.5L1,10.5v-5L1.5,5H9.972V6H2v4Z" />
      <path class="light-defaultgrey-10" d="M14.5,5.5v5H13v-5Z" />
      <path class="light-defaultgrey" d="M15,5.5v5l-.5.5H13V10h1V6H13V5h1.5Z" />
    </g>
    <path class="light-defaultgrey" d="M8,7.5v1H3v-1Z" />
  </g>
</svg>
