<svg xmlns="http://www.w3.org/2000/svg" viewBox="0 0 16 16">
  <defs>
    <style>.canvas{fill: none; opacity: 0;}.light-defaultgrey{fill: #212121; opacity: 1;}</style>
  </defs>
  <title>Sync</title>
  <g id="canvas">
    <path class="canvas" d="M16,16H0V0H16Z" />
  </g>
  <g id="level-1">
    <path class="light-defaultgrey" d="M15,1V5.5l-.5.5H10V5h3.2a5.994,5.994,0,0,0-.953-1.242,5.908,5.908,0,0,0-1.234-.946,6.242,6.242,0,0,0-1.438-.6A5.809,5.809,0,0,0,8,2,5.939,5.939,0,0,0,4.188,3.367,6.2,6.2,0,0,0,2.859,4.906a5.793,5.793,0,0,0-.75,1.946l-.984-.2a6.722,6.722,0,0,1,1.32-2.914,7.865,7.865,0,0,1,1.1-1.14,6.151,6.151,0,0,1,1.328-.86,8.369,8.369,0,0,1,1.5-.547A6.232,6.232,0,0,1,8,1a6.922,6.922,0,0,1,1.8.234,6.849,6.849,0,0,1,1.648.68,7.482,7.482,0,0,1,1.43,1.07A6.684,6.684,0,0,1,14,4.391V1ZM13.141,11.1a6.267,6.267,0,0,1-1.329,1.531A5.939,5.939,0,0,1,8,14a5.425,5.425,0,0,1-1.578-.211,6.779,6.779,0,0,1-1.43-.6,5.707,5.707,0,0,1-1.234-.938A5.888,5.888,0,0,1,2.805,11H6V10H1.5l-.5.5V15H2V11.609a6.771,6.771,0,0,0,1.117,1.414,7.108,7.108,0,0,0,1.422,1.063A6.943,6.943,0,0,0,8,15a6.858,6.858,0,0,0,2.4-.422,6.962,6.962,0,0,0,2.055-1.18A7.189,7.189,0,0,0,14,11.609a6.656,6.656,0,0,0,.867-2.265l-.976-.188A5.713,5.713,0,0,1,13.141,11.1Z" />
  </g>
</svg>
