<svg xmlns="http://www.w3.org/2000/svg" viewBox="0 0 16 16">
  <defs>
    <style>.canvas{fill: none; opacity: 0;}.light-defaultgrey{fill: #212121; opacity: 1;}.light-defaultgrey-10{fill: #212121; opacity: 0.1;}.cls-1{opacity:0.75;}</style>
  </defs>
  <title>IconLightTaskRunner</title>
  <g id="canvas" class="canvas">
    <path class="canvas" d="M16,16H0V0H16Z" />
  </g>
  <g id="level-1">
    <g class="cls-1">
      <path class="light-defaultgrey" d="M5,5V6H2V5ZM4,8H0V9H4ZM2,12H5V11H2Z" />
    </g>
    <path class="light-defaultgrey-10" d="M15.5,4.5v8h-9v-8Z" />
    <path class="light-defaultgrey" d="M15.5,4h-9L6,4.5v8l.5.5h9l.5-.5v-8ZM15,12H7V5h8Z" />
    <path class="light-defaultgrey" d="M8.354,6.146l2,2v.708l-2,2-.708-.708L9.293,8.5,7.646,6.854ZM11,10v1h3V10Z" />
  </g>
</svg>
