<svg xmlns="http://www.w3.org/2000/svg" viewBox="0 0 16 16">
  <defs>
    <style>.canvas{fill: none; opacity: 0;}.light-defaultgrey-10{fill: #212121; opacity: 0.1;}.light-defaultgrey{fill: #212121; opacity: 1;}.light-green{fill: #1f801f; opacity: 1;}.cls-1{opacity:0.75;}</style>
  </defs>
  <title>IconLightTask</title>
  <g id="canvas" class="canvas">
    <path class="canvas" d="M16,16H0V0H16Z" />
  </g>
  <g id="level-1">
    <g class="cls-1">
      <path class="light-defaultgrey-10" d="M12.5,10.621V14.5H2.5V3.5h10V6.379l.5-.5v4.242Z" />
      <path class="light-defaultgrey" d="M13,10.121V14.5l-.5.5H2.5L2,14.5V3.5L2.5,3h10l.5.5V5.879l-1,1V4H3V14h9V11.121Z" />
    </g>
    <path class="light-green" d="M15.1,6.6l-5.25,5.25H9.146l-3-3,.708-.708L9.5,10.793l4.9-4.9Z" />
    <path class="light-defaultgrey" d="M9.5,2a2,2,0,0,0-4,0H4V4h7V2Zm-2-1a1,1,0,1,1-1,1A1,1,0,0,1,7.5,1Z" />
  </g>
</svg>
