<svg xmlns="http://www.w3.org/2000/svg" viewBox="0 0 16 16">
  <defs>
    <style>.canvas{fill: none; opacity: 0;}.light-defaultgrey-10{fill: #212121; opacity: 0.1;}.light-defaultgrey{fill: #212121; opacity: 1;}.light-teal-10{fill: #006758; opacity: 0.1;}.light-teal{fill: #006758; opacity: 1;}</style>
  </defs>
  <title>IconLightTestSettings</title>
  <g id="canvas">
    <path class="canvas" d="M16,16H0V0H16Z" />
  </g>
  <g id="level-1">
    <path class="light-defaultgrey-10" d="M8.649,8,9.5,6.667V2.5h3V6.667L13.351,8Z" />
    <path class="light-defaultgrey" d="M9,3H8V2h6V3H13V6.521L14.091,8.23,13.67,8h-.913l-.679-1.063L12,6.667V3H10V6.667l-.078.27L9.243,8H8.33l-.421.23L9,6.521Z" />
    <path class="light-teal-10" d="M13.76,11.5H8.24a.979.979,0,0,1-.387-.086,4.461,4.461,0,0,0-.538-1.275A.974.974,0,0,1,7.4,9.962L8.33,8.5h5.34L14.6,9.962A1,1,0,0,1,13.76,11.5Z" />
    <path class="light-teal" d="M15.025,9.692,14.092,8.23,13.67,8H8.33l-.422.23L6.982,9.682a4.449,4.449,0,0,1,.964,2.279A1.5,1.5,0,0,0,8.239,12h5.522a1.5,1.5,0,0,0,1.264-2.308ZM14.2,10.74a.491.491,0,0,1-.438.26H8.239a.5.5,0,0,1-.421-.769L8.6,9H13.4l.786,1.23A.49.49,0,0,1,14.2,10.74Z" />
    <path class="light-defaultgrey" d="M7,13V12H5.949a2.473,2.473,0,0,0-.365-.876l.745-.745-.707-.707-.745.745A2.469,2.469,0,0,0,4,10.051V9H3v1.051a2.469,2.469,0,0,0-.877.366l-.745-.745-.707.707.745.745A2.473,2.473,0,0,0,1.051,12H0v1H1.051a2.473,2.473,0,0,0,.365.876l-.745.745.707.707.745-.745A2.469,2.469,0,0,0,3,14.949V16H4V14.949a2.469,2.469,0,0,0,.877-.366l.745.745.707-.707-.745-.745A2.473,2.473,0,0,0,5.949,13ZM3.5,14A1.5,1.5,0,1,1,5,12.5,1.5,1.5,0,0,1,3.5,14Z" />
  </g>
</svg>
